<?xml version="1.0" encoding="UTF-8"?>
<svg xmlns="http://www.w3.org/2000/svg" id="Layer_1" data-name="Layer 1" viewBox="0 0 240 160">
  <title>company-bl-netflix</title>
  <path d="M101.82074,94.26733ZM96.33081,66.7627h5.48993V94.26733q2.93418-.10455,5.87482-.176V66.7627h5.489V61.35742H96.33081ZM76.64642,95.81226q6.99774-.60407,14.01026-1.01294V89.3894q-4.06585.23658-8.11438.54126v-8.645h7.05462V75.8833H82.5423V66.76123h8.12585V61.35657H76.64642ZM64.65308,82.6543,57.1499,61.35657H51.27374V98.64526H51.309q2.79236-.38634,5.598-.739v-20.561l6.95337,19.73072q3.20755-.36,6.42737-.67945V61.35657h-5.6347ZM158.294,95.38293q2.93811.22688,5.87243.48389V61.3562H158.294ZM188.72632,61.3562h-5.95l-.06189.08521-3.79505,9.37207-3.332-9.45606h-5.87475l6.06494,17.21167L168.60986,96.275h-.00048q2.87145.27851,5.73632.59107L178.56006,86.46l4.006,11.366q3.083.38636,6.158.81006l-7.02307-19.93128ZM118.90723,93.94189c.38073,0,.76336-.00585,1.14544-.00451,1.58533,0,3.16883.012,4.74952.02478V81.28333h7.05462V75.88416h-7.05414V66.76172h8.12494V61.3562H118.90723Zm25.65863-32.58715h-5.8982V94.287q7.03767.25836,14.02314.71472V89.58887q-4.055-.26184-8.12494-.45825Z"></path>
</svg>
