<?xml version="1.0" encoding="UTF-8"?>
<svg xmlns="http://www.w3.org/2000/svg" id="Layer_1" data-name="Layer 1" viewBox="0 0 240 160">
  <title>company-bl-philips</title>
  <path d="M96.92757,67.37172H89.21912V77.411H81.19386V67.37172H73.48532V92.62816h7.70854V82.69479h8.02526v9.93337h7.70845V67.37172Zm26.82116,20.18386V67.37172h-7.70844V92.62816h13.93848l1.1616-5.07258ZM110.33805,67.37172H102.6298V92.62816h7.70825V67.37172Zm31.2562,0H133.8858V92.62816h7.70845V67.37172Zm38.01441,6.4461c0-1.3738,1.37281-2.00791,3.59-2.00791a19.37315,19.37315,0,0,1,6.86364,1.2683l-.6334-5.49539a30.1604,30.1604,0,0,0-7.07505-.73939c-6.23,0-10.45368,2.45659-10.45368,7.60827,0,8.87689,12.0377,7.0805,12.0377,11.20188,0,1.585-1.16142,2.4304-4.01244,2.4304a23.05374,23.05374,0,0,1-8.76446-2.00781l.84481,5.812a25.49947,25.49947,0,0,0,8.025,1.2684c6.44144,0,11.72106-2.11342,11.72106-8.4542,0-8.454-12.14327-6.86888-12.14327-10.88455ZM157.85593,86.60458c7.18045,0,11.72128-3.6986,11.72128-10.14479,0-7.08027-4.85763-9.61636-12.77728-9.61636a86.71046,86.71046,0,0,0-9.39766.52829V92.62816h7.70844V86.60458Zm4.11842-10.03938c0,3.2761-1.584,5.49538-5.59663,5.49538h-1.267V71.62511c.44852-.02629.87112-.02629,1.267-.02629,3.80123,0,5.59663,1.7962,5.59663,4.96638ZM58.702,86.60458c7.18034,0,11.721-3.6986,11.721-10.14479,0-7.08027-4.85733-9.61636-12.777-9.61636a86.71455,86.71455,0,0,0-9.398.52829V92.62816h7.70834V86.60458Zm4.118-10.03938c0,3.2761-1.58392,5.49538-5.59646,5.49538h-1.2672V71.62511c.4488-.02629.87122-.02629,1.2672-.02629,3.80144,0,5.59646,1.7962,5.59646,4.96638Z"></path>
</svg>
