<?xml version="1.0" encoding="UTF-8"?>
<svg xmlns="http://www.w3.org/2000/svg" id="Layer_1" data-name="Layer 1" viewBox="0 0 240 160">
  <title>company-bl-randstad</title>
  <path d="M32.376,75.07521a2.2686,2.2686,0,0,0-1.584-.66238H19.56v4.464H31.8576a3.34317,3.34317,0,0,1,3.3408,3.34076V94.51521h4.464v-11.232A2.21724,2.21724,0,0,0,39,81.69921Z"></path>
  <path d="M49.1376,75.07521l-6.624,6.624a2.21726,2.21726,0,0,0-.66239,1.584v11.232H46.344V82.21759a3.34318,3.34318,0,0,1,3.34081-3.34076H61.9536v-4.464H50.7216A2.26868,2.26868,0,0,0,49.1376,75.07521Z"></path>
  <path d="M93.31681,74.24a9.84118,9.84118,0,0,0-2.448-.288,6.11614,6.11614,0,0,0-5.2416,3.57121h-.0864V74.41283H82.1136V94.544H85.8V85.41441c0-5.06879,2.16-8.208,5.472-8.208a5.18352,5.18352,0,0,1,2.04481.34559Z"></path>
  <path d="M190.8624,73.952a12.75131,12.75131,0,0,0-6.59521,1.872l.17281,3.168a9.25474,9.25474,0,0,1,5.8176-2.07359c3.6864,0,4.95361,1.81442,4.95361,5.27042-1.4688-.08642-2.4768-.08642-3.94561-.08642-3.8016,0-9.3312,1.584-9.3312,6.624,0,4.40642,3.024,6.27842,7.37279,6.27842A7.49547,7.49547,0,0,0,195.528,91.952h.0864v2.56321h3.28322V82.24641C198.8976,76.74559,196.5936,73.952,190.8624,73.952Zm1.9872,10.88641c.77761,0,1.584.08642,2.36161.08642v1.75676c0,3.024-1.92961,5.328-5.58721,5.328-1.69921,0-3.744-1.152-3.744-3.28318C185.88,85.15521,190.8336,84.83841,192.8496,84.83841Z"></path>
  <path d="M101.496,73.952a12.75131,12.75131,0,0,0-6.59521,1.872l.17279,3.168a9.25477,9.25477,0,0,1,5.81761-2.07359c3.68639,0,4.9536,1.81442,4.9536,5.27042-1.46879-.08642-2.47679-.08642-3.9456-.08642-3.80161,0-9.33119,1.584-9.33119,6.624,0,4.40642,3.024,6.27842,7.37279,6.27842a7.49551,7.49551,0,0,0,6.22081-3.05283h.0864v2.56321h3.28319V82.24641C109.53121,76.74559,107.22721,73.952,101.496,73.952ZM100.2576,92.00959c-1.69919,0-3.744-1.152-3.744-3.28318,0-3.5712,4.95361-3.888,6.96961-3.888.7776,0,1.584.08642,2.3616.08642v1.75676C105.84481,89.70559,103.91521,92.00959,100.2576,92.00959Z"></path>
  <path d="M122.808,73.92321c-2.79359,0-5.50079,1.35362-6.59519,3.62879h-.0864V74.41283h-3.5712V94.48641h3.68639V85.184c0-4.92479,1.872-8.32317,6.10561-8.32317,3.2256.20158,4.26239,2.50558,4.26239,7.2V94.48641h3.71521v-11.952C130.32481,77.12,128.02081,73.92321,122.808,73.92321Z"></path>
  <path d="M158.0016,79.33759c0-1.64159,1.6704-2.448,3.5424-2.448a10.70887,10.70887,0,0,1,3.888,1.03682l.31679-3.19682a14.71385,14.71385,0,0,0-4.608-.80638c-3.97439,0-7.08479,2.016-7.08479,6.192,0,5.64479,8.6976,5.328,8.6976,9.01438,0,2.16-2.07358,2.88-3.77279,2.88a9.83789,9.83789,0,0,1-4.608-1.41118L154.2,93.88159a11.631,11.631,0,0,0,5.50079,1.09441c3.57119,0,6.9984-1.95841,6.9984-6.24959C166.69921,82.27521,158.0016,83.456,158.0016,79.33759Z"></path>
  <path d="M175.4256,88.43841V77.37921h5.328V74.41283h-5.328V68.59521L171.73921,69.776v4.63683H167.2176v2.96638H171.768v11.808c0,4.032,2.36161,5.81762,6.16321,5.81762a11.81559,11.81559,0,0,0,3.13921-.54724V91.31841a4.49688,4.49688,0,0,1-2.5344.72C176.83681,92.03841,175.4256,90.77121,175.4256,88.43841Z"></path>
  <path d="M216.7536,64.96641V77.14883h-.08639c-1.152-1.84324-3.13921-3.19683-6.6528-3.19683-5.8176,0-8.66879,4.752-8.66879,10.16641,0,5.52959,2.56321,10.91518,8.61121,10.91518a8.06513,8.06513,0,0,0,6.85439-3.28318h.0864v2.7648H220.44V64.96641Zm-5.93281,11.92318c4.00321,0,5.9328,3.83041,5.9328,7.60324,0,3.36958-1.728,7.51679-5.904,7.51679-3.94559.02879-5.58719-4.464-5.52959-7.632C205.2336,80.69121,206.8176,76.88959,210.82079,76.88959Z"></path>
  <path d="M148.18081,77.14883h-.0864c-1.152-1.84324-3.13919-3.19683-6.65279-3.19683-5.8176,0-8.66881,4.752-8.66881,10.16641,0,5.52959,2.56321,10.91518,8.61121,10.91518a8.06519,8.06519,0,0,0,6.85439-3.28318h.0864v2.7648h3.5424V64.96641h-3.6864Zm-5.904,14.86079c-3.9744.02879-5.616-4.464-5.5296-7.632-.0864-3.68638,1.4976-7.488,5.50081-7.488s5.93279,3.83041,5.93279,7.60324C148.18081,87.86241,146.45281,92.00962,142.27681,92.00962Z"></path>
</svg>
