<?xml version="1.0" encoding="UTF-8"?>
<svg xmlns="http://www.w3.org/2000/svg" id="Layer_1" data-name="Layer 1" viewBox="0 0 480 320">
  <defs>
    <style>.cls-1{fill:#505666;}</style>
  </defs>
  <path class="cls-1" d="M289.27291,188.29129h12.90725v-38.312H289.27291Zm13.72674-50.60459a6.30889,6.30889,0,0,1-.6146,2.6634,5.30425,5.30425,0,0,1-1.43416,2.25364,7.08416,7.08416,0,0,1-2.4585,1.43414,6.54382,6.54382,0,0,1-2.86828.61463,7.27651,7.27651,0,0,1-5.12192-2.04877,6.8846,6.8846,0,0,1-2.25365-4.917,5.67105,5.67105,0,0,1,.61464-2.6634,5.81048,5.81048,0,0,1,1.639-2.25364,5.30446,5.30446,0,0,1,2.25365-1.43414,6.54378,6.54378,0,0,1,2.86827-.61463,12.09155,12.09155,0,0,1,2.86828.40975,7.36738,7.36738,0,0,1,2.4585,1.63906,4.68352,4.68352,0,0,1,1.43416,2.04878,6.54375,6.54375,0,0,1,.6146,2.86827Z"></path>
  <path class="cls-1" d="M196.87347,147.52078a12.21618,12.21618,0,0,0-4.50729-3.278,11.15143,11.15143,0,0,0-5.53167-1.43414,14.09926,14.09926,0,0,0-2.6634.40975,5.824,5.824,0,0,0-2.4585.8195,4.83714,4.83714,0,0,0-1.84389,1.639,4.11767,4.11767,0,0,0-.81949,2.66339,3.68026,3.68026,0,0,0,.61463,2.25365,4.83706,4.83706,0,0,0,1.84389,1.639,8.17711,8.17711,0,0,0,2.6634,1.43414,31.60343,31.60343,0,0,1,3.48293,1.02439c1.84388.61463,3.89266,1.43414,5.94143,2.04877a24.05253,24.05253,0,0,1,5.53167,3.07316,18.08371,18.08371,0,0,1,4.30246,4.50728,14.00292,14.00292,0,0,1,1.639,6.96581,16.44157,16.44157,0,0,1-1.84388,7.99019,14.54372,14.54372,0,0,1-4.71218,5.73654,19.87291,19.87291,0,0,1-6.96579,3.278,24.7662,24.7662,0,0,1-7.78532,1.22926,36.79776,36.79776,0,0,1-11.678-2.04877,23.90365,23.90365,0,0,1-9.21946-5.94144l8.80974-8.80974a13.719,13.719,0,0,0,5.3268,4.09753,14.00955,14.00955,0,0,0,6.76093,1.84389,16.07135,16.07135,0,0,0,2.86828-.40975,12.53179,12.53179,0,0,0,2.4585-1.02439,4.83694,4.83694,0,0,0,1.639-1.84389,5.94973,5.94973,0,0,0,.61462-2.86828,3.26572,3.26572,0,0,0-.81949-2.45852,5.5465,5.5465,0,0,0-2.25365-2.04877,18.70024,18.70024,0,0,0-3.4829-1.639c-1.43412-.40975-3.07316-1.02439-4.91705-1.639a40.67678,40.67678,0,0,1-5.32679-1.84389,17.52572,17.52572,0,0,1-4.50729-3.07316,13.36562,13.36562,0,0,1-3.278-4.30246,15.27284,15.27284,0,0,1-1.22926-6.35118,15.1017,15.1017,0,0,1,1.84389-7.78532,18.18854,18.18854,0,0,1,5.12192-5.3268,20.25063,20.25063,0,0,1,6.76093-3.07315,35.3598,35.3598,0,0,1,7.78532-1.02439,27.83811,27.83811,0,0,1,9.8341,1.84389,22.48833,22.48833,0,0,1,8.60483,4.917Z"></path>
  <path class="cls-1" d="M240.30735,162.067a8.55734,8.55734,0,0,0-3.07316-2.25364,8.31421,8.31421,0,0,0-3.89266-.81951,8.03553,8.03553,0,0,0-3.68777.81951,6.65607,6.65607,0,0,0-2.6634,2.04876,17.69386,17.69386,0,0,0-2.04877,3.278,11.3708,11.3708,0,0,0,0,7.37558,10.39034,10.39034,0,0,0,1.84388,3.278,8.10508,8.10508,0,0,0,3.07316,2.04877,7.01617,7.01617,0,0,0,3.68779.8195,8.3142,8.3142,0,0,0,3.89264-.8195,6.77517,6.77517,0,0,0,3.07317-2.04877l7.17068,8.60483a17.86391,17.86391,0,0,1-6.14631,3.48291,22.2873,22.2873,0,0,1-8.19507,1.43414,24.85108,24.85108,0,0,1-8.80974-1.43414,20.08414,20.08414,0,0,1-11.678-10.44872,22.21365,22.21365,0,0,1-1.639-8.60482,21.92222,21.92222,0,0,1,1.639-8.4A19.20679,19.20679,0,0,1,217.566,153.872a21.57443,21.57443,0,0,1,6.96583-4.09754,23.7276,23.7276,0,0,1,8.60483-1.43413,30.56556,30.56556,0,0,1,4.30246.40974,21.6111,21.6111,0,0,1,3.89266,1.02439,20.11872,20.11872,0,0,1,3.68779,1.639,30.11427,30.11427,0,0,1,2.6634,2.04878Z"></path>
  <path class="cls-1" d="M280.873,160.01822c-1.09273-.13659-2.18271-.29379-3.278-.40975a9.76685,9.76685,0,0,0-4.50729,1.02439,7.13374,7.13374,0,0,0-2.66339,2.25364,6.60419,6.60419,0,0,0-1.639,2.86827,14.10006,14.10006,0,0,0-.40975,2.6634v19.66818H255.46828v-38.5168h12.29257v5.73656h.20482a12.521,12.521,0,0,1,4.30246-4.917,11.02976,11.02976,0,0,1,6.35121-1.8439h1.639a2.59862,2.59862,0,0,0,1.22926.20483Z"></path>
  <path class="cls-1" d="M429.81845,160.01822a3.994,3.994,0,0,0-1.639-.20482,4.51121,4.51121,0,0,0-1.639-.20483A9.52357,9.52357,0,0,0,422.238,160.633a7.815,7.815,0,0,0-2.86828,2.25364,6.32738,6.32738,0,0,0-1.43413,2.86828,7.07331,7.07331,0,0,0-.61464,2.66339v19.66818h-12.9072v-38.5169h12.49748v5.73656h.20483a13.87623,13.87623,0,0,1,4.09751-4.917,11.69863,11.69863,0,0,1,6.55608-1.8439h1.43414a3.60488,3.60488,0,0,0,1.22924.20483Z"></path>
  <path class="cls-1" d="M330.4532,179.48158c-5.12191,0-9.42435-4.71216-9.42435-10.44872,0-5.53167,4.30244-10.24384,9.42435-10.24384,5.32676,0,9.62921,4.71216,9.62921,10.24384,0,5.73656-4.30245,10.44872-9.62921,10.44872m-20.69258-10.44872a20.7973,20.7973,0,0,0,41.59,0c0-11.26823-9.21946-20.28281-20.89744-20.28281a20.41985,20.41985,0,0,0-20.6912,20.14487q-.0009.069-.00138.13793Z"></path>
  <polygon class="cls-1" points="309.761 168.828 320.004 168.828 320.004 130.515 309.761 130.515 309.761 168.828"></polygon>
  <polygon class="cls-1" points="357.292 168.828 367.536 168.828 367.536 130.515 357.292 130.515 357.292 168.828"></polygon>
  <path class="cls-1" d="M377.98459,179.48158a10.34679,10.34679,0,1,1,10.4487-10.24386v0a10.31921,10.31921,0,0,1-10.39349,10.24438l-.05521-.00054m0-30.73153a20.38753,20.38753,0,0,0-.60967,40.7705q.30485.00456.60967,0c11.47309,0,20.89744-9.01456,20.89744-20.28281A20.7697,20.7697,0,0,0,377.98459,148.75"></path>
  <path class="cls-1" d="M100.37647,179.68644a14.28291,14.28291,0,0,0,6.76093-1.43414l18.439-10.44871v9.83412a8.63641,8.63641,0,0,1-3.68778,6.35119l-17.82431,10.039a7.83369,7.83369,0,0,1-7.37557,0l-18.02914-10.039a9.33445,9.33445,0,0,1-3.68778-6.35119v-10.039l18.64379,10.6536a14.28279,14.28279,0,0,0,6.76093,1.43414ZM99.557,148.95491l-3.278-5.32679,9.21946,2.04876Zm47.94118-4.91705-40.36072-23.15108a14.3654,14.3654,0,0,0-13.52185,0L53.25484,144.03786a6.47751,6.47751,0,0,0-3.68783,5.53169c0,2.04877,1.43414,4.09754,3.68778,5.53167l15.77551,9.01457v13.52186a14.276,14.276,0,0,0,6.76094,11.4731l17.82431,10.039a12.28216,12.28216,0,0,0,6.76094,1.639,12.73443,12.73443,0,0,0,6.76093-1.639l17.82431-10.039a14.27606,14.27606,0,0,0,6.76093-11.4731v-9.21946a14.27609,14.27609,0,0,0-6.76093-11.47311l-15.57064-8.80974,2.86824-1.639a1.79575,1.79575,0,0,0,1.02439-2.04877c-.20482-.8195-.8195-1.639-1.639-1.639l-19.25843-4.09753a2.37548,2.37548,0,0,0-2.04877.81951,2.21951,2.21951,0,0,0,0,2.25364l6.76093,10.85846a2.08921,2.08921,0,0,0,1.639,1.02439,1.53526,1.53526,0,0,0,1.02439-.20482l3.68778-2.04877,18.43892,10.6536c.20482.20483.40975.20483.61463.40975l-18.43891,10.65361a8.47753,8.47753,0,0,1-7.37558-.20482L56.328,149.97939a2.53543,2.53543,0,0,1-.61464-.40975c0-.20482.20483-.40974.61464-.40974l40.36072-23.15109a9.23481,9.23481,0,0,1,7.37558,0L144.425,149.1599c.40975,0,.61463.20482.61463.40974a2.53538,2.53538,0,0,1-.61463.40975l-7.37556,4.30246a2.79127,2.79127,0,0,0-1.08032,3.79676q.027.04851.05594.0959a3.05,3.05,0,0,0,4.09753,1.22927l7.37556-4.30246c2.45852-1.43413,3.68777-3.48291,3.68777-5.53167a6.11092,6.11092,0,0,0-3.68777-5.53167Z"></path>
</svg>
