<?xml version="1.0" encoding="UTF-8"?>
<svg xmlns="http://www.w3.org/2000/svg" id="Layer_1" data-name="Layer 1" viewBox="0 0 240 160">
  <title>company-bl-vodafone</title>
  <g id="g3721">
    <path d="M58.622,58.90292a9.69941,9.69941,0,0,0-7.57982,9.3105,2.0783,2.0783,0,0,0,.02989.3818c7.10962,1.73363,10.33627,6.02427,10.3577,11.95831a12.4988,12.4988,0,0,1-12.58889,12.4687H48.841c-6.41461.022-13.09089-5.45354-13.12092-14.24914a19.82523,19.82523,0,0,1,7.12682-14.7347,23.35842,23.35842,0,0,1,14.12922-5.33286A6.3925,6.3925,0,0,1,58.541,58.864a23.67914,23.67914,0,1,0,.081.03891Z"></path>
    <path id="path2339-2" d="M87.08827,89.67122,79.94855,72.6329h4.664l4.45374,11.31459L93.38271,72.6329h4.45375L90.907,89.67122Z"></path>
    <path id="path2341-0" d="M110.26229,81.06414a7.94909,7.94909,0,0,0-.24887-2.02093,4.83915,4.83915,0,0,0-.74229-1.64761,3.7542,3.7542,0,0,0-1.2014-1.09843,3.55286,3.55286,0,0,0-3.321,0,3.71047,3.71047,0,0,0-1.20139,1.09843,4.83915,4.83915,0,0,0-.74229,1.64761,8.4169,8.4169,0,0,0,0,4.0633,5.33218,5.33218,0,0,0,.72084,1.64765,3.53977,3.53977,0,0,0,1.20569,1.11986,3.37319,3.37319,0,0,0,1.67765.40759,3.2846,3.2846,0,0,0,1.66049-.40759,3.77663,3.77663,0,0,0,1.2014-1.11986,5.07481,5.07481,0,0,0,.74229-1.64765,7.9055,7.9055,0,0,0,.24887-2.04237m4.31215.01868a10.79958,10.79958,0,0,1-.51059,3.27378,8.99549,8.99549,0,0,1-1.5232,2.87906,7.49417,7.49417,0,0,1-2.54437,2.051,8.6723,8.6723,0,0,1-7.174,0,7.55094,7.55094,0,0,1-2.54867-2.051,9.071,9.071,0,0,1-1.51891-2.87906,10.79964,10.79964,0,0,1-.51059-3.27378,10.64265,10.64265,0,0,1,.51059-3.25236,8.89918,8.89918,0,0,1,1.51891-2.84471,7.45109,7.45109,0,0,1,2.54867-2.01234,7.98751,7.98751,0,0,1,3.587-.76373,7.90091,7.90091,0,0,1,3.56986.76373,7.64414,7.64414,0,0,1,2.54439,2.01234,8.62414,8.62414,0,0,1,1.54035,2.84471,10.64265,10.64265,0,0,1,.51059,3.25236"></path>
    <path id="path2343-6" d="M127.74257,76.383a6.51266,6.51266,0,0,0-2.35989-.49771,4.09985,4.09985,0,0,0-1.9308.42906,3.81122,3.81122,0,0,0-1.33869,1.14989,5.253,5.253,0,0,0-.78949,1.63477,6.60011,6.60011,0,0,0-.266,1.86211,8.80227,8.80227,0,0,0,.23172,2.03809,5.2531,5.2531,0,0,0,.70367,1.70338,3.74524,3.74524,0,0,0,1.19281,1.17137,3.23239,3.23239,0,0,0,1.7077.44194,3.57237,3.57237,0,0,0,1.65191-.44194,2.92088,2.92088,0,0,0,1.19711-1.04694Zm.35184,13.28825-.17592-1.30434a5.41348,5.41348,0,0,1-1.58755,1.18,4.95819,4.95819,0,0,1-2.32556.51487,6.28988,6.28988,0,0,1-3.09788-.7423,6.937,6.937,0,0,1-2.25691-1.978,9.05134,9.05134,0,0,1-1.39448-2.86619,12.14588,12.14588,0,0,1-.472-3.39394,11.00506,11.00506,0,0,1,.48916-3.25235,8.6048,8.6048,0,0,1,1.49744-2.84471,7.47847,7.47847,0,0,1,2.52293-2.01234,7.84359,7.84359,0,0,1,3.557-.76373,9.668,9.668,0,0,1,2.89194.49339V66.09389h4.3808V89.67127Z"></path>
    <path id="path2345-7" d="M144.46339,81.682c-.472.02489-.96112.06879-1.45884.12452-.49772.0601-.9697.1373-1.42022.23166a3.27271,3.27271,0,0,0-1.978.96973,2.38,2.38,0,0,0-.54921,1.506,1.67612,1.67612,0,0,0,.62214,1.36017,2.71136,2.71136,0,0,0,1.75919.51059,4.04552,4.04552,0,0,0,1.65621-.35181,4.91692,4.91692,0,0,0,1.36873-.88388Zm.35184,7.97642-.17162-1.27436a4.86049,4.86049,0,0,1-1.81066,1.23141,6.38072,6.38072,0,0,1-2.41139.44622,6.029,6.029,0,0,1-2.111-.37324,5.49649,5.49649,0,0,1-1.7935-1.05981,5.19788,5.19788,0,0,1-1.73773-3.97745,4.82884,4.82884,0,0,1,.49771-2.24405,4.89936,4.89936,0,0,1,1.34727-1.64333,7.48857,7.48857,0,0,1,1.95227-1.09411,12.26211,12.26211,0,0,1,2.3041-.63934,16.79626,16.79626,0,0,1,1.86216-.26188c.67364-.0601,1.23572-.11145,1.68624-.15877v-.24877a2.47078,2.47078,0,0,0-.72941-2.01661,3.06671,3.06671,0,0,0-2.00376-.60072,5.51223,5.51223,0,0,0-1.42451.1803,6.19915,6.19915,0,0,0-1.20569.43766,10.77091,10.77091,0,0,0-.944.53207,6.65772,6.65772,0,0,0-.65647.47624L136.015,74.2977a6.23207,6.23207,0,0,1,.86671-.60067,9.70388,9.70388,0,0,1,1.41592-.69079,11.91232,11.91232,0,0,1,1.87075-.56637,10.35275,10.35275,0,0,1,2.244-.23166,8.44343,8.44343,0,0,1,2.583.37329,5.228,5.228,0,0,1,2.01661,1.167,5.45594,5.45594,0,0,1,1.32583,2.01233,8.09913,8.09913,0,0,1,.47627,2.94772V89.65844Z"></path>
    <path id="path2347-3" d="M162.35557,69.98127a6.90832,6.90832,0,0,0-.8281-.30046,5.7173,5.7173,0,0,0-1.64763-.193,2.23989,2.23989,0,0,0-1.53606.54922,2.27743,2.27743,0,0,0-.61786,1.7849v.811H161.403v3.53557h-3.6428v13.5028h-4.38509V76.16842H151.114V72.63285h2.26119v-.91822a8.15774,8.15774,0,0,1,.42479-2.81037,4.86248,4.86248,0,0,1,1.18423-1.87076,4.62986,4.62986,0,0,1,1.78492-1.06408,7.16957,7.16957,0,0,1,2.23117-.33466,9.61525,9.61525,0,0,1,2.63019.30045,7.89467,7.89467,0,0,1,1.21855.40759Z"></path>
    <path id="path2349-9" d="M174.30516,81.06414a8.14667,8.14667,0,0,0-.24887-2.02093,4.83914,4.83914,0,0,0-.74228-1.64761,3.7544,3.7544,0,0,0-1.2014-1.09843,3.55288,3.55288,0,0,0-3.321,0,3.76807,3.76807,0,0,0-1.20569,1.09843,5.00882,5.00882,0,0,0-.74228,1.64761,8.56122,8.56122,0,0,0,0,4.0633,5.44114,5.44114,0,0,0,.72513,1.64765,3.566,3.566,0,0,0,1.20139,1.11986,3.40134,3.40134,0,0,0,1.682.40759,3.28474,3.28474,0,0,0,1.6605-.40759,3.777,3.777,0,0,0,1.2014-1.11986,5.075,5.075,0,0,0,.74228-1.64765,8.09545,8.09545,0,0,0,.24887-2.04237m4.31214.01868a10.67333,10.67333,0,0,1-.51488,3.27378,8.90168,8.90168,0,0,1-1.5189,2.87906,7.49414,7.49414,0,0,1-2.54439,2.051,8.6723,8.6723,0,0,1-7.174,0,7.55094,7.55094,0,0,1-2.54867-2.051,9.071,9.071,0,0,1-1.51891-2.87906,10.66828,10.66828,0,0,1-.5106-3.27378,10.51349,10.51349,0,0,1,.5106-3.25236,8.89918,8.89918,0,0,1,1.51891-2.84471,7.45106,7.45106,0,0,1,2.54866-2.01234,7.98755,7.98755,0,0,1,3.587-.76373,7.90087,7.90087,0,0,1,3.56985.76373,7.6439,7.6439,0,0,1,2.54438,2.01234,8.5365,8.5365,0,0,1,1.53607,2.84471,10.51844,10.51844,0,0,1,.51488,3.25236"></path>
    <path id="path2351-6" d="M192.22308,89.67122V79.95283a4.871,4.871,0,0,0-.81092-3.00777,2.70284,2.70284,0,0,0-2.2655-1.05976,3.51862,3.51862,0,0,0-1.88791.532,7.96792,7.96792,0,0,0-1.506,1.16709V89.67127h-4.38081V72.63295h3.99464l.21024,1.343a7.87744,7.87744,0,0,1,4.91285-1.76344,7.28979,7.28979,0,0,1,2.47573.40332,4.8529,4.8529,0,0,1,1.94369,1.29151,5.9514,5.9514,0,0,1,1.25716,2.2955,11.57064,11.57064,0,0,1,.44194,3.39393V89.67131Z"></path>
    <path id="path2353-4" d="M210.244,79.10331a4.487,4.487,0,0,0-.37329-1.5361,3.25367,3.25367,0,0,0-.74657-1.05981,2.89675,2.89675,0,0,0-2.00806-.798,3.35663,3.35663,0,0,0-2.1668.84953,3.63091,3.63091,0,0,0-1.21,2.54441Zm-6.60766,3.14507a4.085,4.085,0,0,0,1.34727,3.11073,4.88284,4.88284,0,0,0,3.11932.95685,8.57135,8.57135,0,0,0,1.66908-.15878,7.69373,7.69373,0,0,0,1.38589-.40759,8.3494,8.3494,0,0,0,1.02976-.49344,3.43422,3.43422,0,0,0,.63932-.46336l1.16706,3.57413q-.251.17374-.79807.47625a8.23138,8.23138,0,0,1-1.36014.56636,14.91574,14.91574,0,0,1-1.90936.45909,13.88431,13.88431,0,0,1-2.4028.193,9.48733,9.48733,0,0,1-3.16653-.52774,7.07537,7.07537,0,0,1-2.63021-1.64761,8.03737,8.03737,0,0,1-1.80208-2.77179,10.49229,10.49229,0,0,1-.67365-3.9603,10.91638,10.91638,0,0,1,.61787-3.81872,8.10709,8.10709,0,0,1,1.69483-2.79321,7.50529,7.50529,0,0,1,2.51006-1.73346,7.85947,7.85947,0,0,1,3.05927-.60067,8.3643,8.3643,0,0,1,3.00777.532,6.16351,6.16351,0,0,1,2.38562,1.64333,7.92674,7.92674,0,0,1,1.58755,2.88334,13.40913,13.40913,0,0,1,.58352,4.20488v.77665Z"></path>
  </g>
</svg>
